<?xml version="1.0" encoding="iso-8859-1"?>
<!-- Generator: Adobe Illustrator 19.0.0, SVG Export Plug-In . SVG Version: 6.00 Build 0)  -->
<svg version="1.1" id="Layer_1" xmlns="http://www.w3.org/2000/svg" xmlns:xlink="http://www.w3.org/1999/xlink" x="0px" y="0px"
	 viewBox="0 0 318.975 318.975" style="enable-background:new 0 0 318.975 318.975;" xml:space="preserve">
<g>
	<g>
		<path style="fill:#E8C59E;" d="M303.678,253.528c-11.151-37.754-67.121-33.566-91.279-44.408
			c-24.157-10.842-20.386-47.219-23.449-53.548h-58.932c-3.058,6.329,0.714,42.711-23.449,53.548
			c-24.157,10.842-80.133,6.655-91.279,44.408c-6.149,20.824-5.857,27.193-7.554,50.26c0,0,76.8,15.187,150.014,15.187
			s153.488-15.187,153.488-15.187C309.536,280.715,309.828,274.352,303.678,253.528z"/>
		<path style="fill:#DDB58E;" d="M303.678,253.528c-11.151-37.754-67.121-33.566-91.279-44.408
			c-24.157-10.842-20.386-47.219-23.449-53.548h-31.206c0,0-0.719,51.024,23.438,61.866s80.133,6.655,91.279,44.408
			c5.857,19.83,5.868,26.552,7.324,47.073c19.234-2.816,31.442-5.126,31.442-5.126C309.536,280.715,309.828,274.352,303.678,253.528
			z"/>
		<path style="fill:#CCA281;" d="M122.088,193.168c9.78,7.959,21.24,15.85,37.338,18.132c16.137-2.288,27.569-10.342,37.36-18.334
			c-8.144-14.973-5.626-32.83-7.83-37.4h-58.938C127.804,160.142,130.272,178.189,122.088,193.168z"/>
		
			<ellipse transform="matrix(-0.177 0.9842 -0.9842 -0.177 385.6717 -85.3651)" style="fill:#DDB58E;" cx="228.527" cy="118.567" rx="21.386" ry="11.629"/>
		
			<ellipse transform="matrix(-0.9842 0.177 -0.177 -0.9842 200.1008 219.2995)" style="fill:#E8C59E;" cx="90.269" cy="118.575" rx="11.629" ry="21.386"/>
		<path style="fill:#E8C59E;" d="M223.647,47.375l-64.221-30.16l-64.187,30.16c0,0-35.989,146.614,64.187,160.806
			C259.641,193.989,223.647,47.375,223.647,47.375z"/>
		<path style="fill:#DDB58E;" d="M159.426,208.181c100.216-14.192,64.221-160.806,64.221-160.806h-15.024
			c4.114,61.242,9.808,93.774-13.815,129.24C176.091,204.719,159.426,208.181,159.426,208.181z"/>
		<path style="fill:#DDB58E;" d="M102.332,89.215c0,0,41.744,27.429,114.936,17.868V89.215H102.332z"/>
		<path style="fill:#F2AC2F;" d="M151.164,101.878c33.358,5.008,65.165-0.18,65.165-0.18c2.585,6.762,3.586,28.069,3.861,38.018
			l6.441-0.045c3.041-10.156,6.863-43.178,6.863-43.178c16.525-9.538,27.726-24.759,30.127-38.743c0,0-8.504,4.699-22.218-2.9
			c13.242-10.713,10.05-28.215,10.05-28.215s-13.669,7.059-20.897,5.014c0,0,6.7-5.059,5.632-18.452c0,0-8.656,8.656-16.62,7.065
			c0,0,6.823-5.238,0.899-15.035c0,0-10.022,7.745-23.297,5.632c0,0,6.334-2.9,6.334-10.859c0,0-17.205,11.393-40.896,7.728
			c-22.095-3.417-37.113,4.373-48.86,16.339c0,0-9.864-1.585-19.2,7.655s-8.892,9.24-14.709,10.134c0,0,1.102,9.049,6.458,10.308
			c0,0-1.759,7.599-8.92,8.268c0,0,1.681,17.907,7.779,18.582c0,0-1.163,8.909-6.936,11.438c0,0,1.709,10.752,9.055,17.907
			l4.991,31.346h7.133c-0.697-27.923,2.94-50.507,2.94-50.507S121.431,97.421,151.164,101.878z"/>
		<path style="fill:#E59A23;" d="M226.013,59.325c8.841,0.45,15.389-4.468,15.389-4.468c0.95,0.528,1.872,0.989,2.765,1.4l0,0
			C235.456,62.264,226.013,59.325,226.013,59.325z"/>
		<path style="fill:#E59A23;" d="M217.268,35.712c8.38,0.781,13.287-4.052,13.287-4.052c1.175,0.332,2.518,0.422,3.946,0.343l0,0
			C229.105,38.922,217.268,35.712,217.268,35.712z"/>
		<path style="fill:#E59A23;" d="M208.55,22.392c5.598,1.343,11.016-2.125,11.016-2.125c1.518,0.304,3.058,0.236,4.558-0.073
			c0,0.045-0.017,0.073-0.017,0.073C218.066,25.865,208.55,22.392,208.55,22.392z"/>
		<path style="fill:#E59A23;" d="M187.731,12.763c4.586,0.225,9.437-1.9,9.437-1.9c1.489,0.236,2.934,0.343,4.333,0.36l0,0
			C194.004,14.495,187.731,12.763,187.731,12.763z"/>
		<path style="fill:#EAE5DC;" d="M86.538,214.757c-8.043,1.624-16.884,3.119-25.557,5.21c1.09,11.489,5.143,58.404,2.226,92.442
			c27.221,3.423,61.253,6.565,94.544,6.565c34.022,0,69.566-3.282,97.872-6.79c-2.878-34.044,1.169-80.83,2.248-92.246
			c-8.678-2.085-17.519-3.58-25.551-5.205c-16.069,56.245-58.404,55.683-72.894,55.683
			C144.936,270.418,102.613,270.98,86.538,214.757z"/>
		<path style="fill:#E0DBD3;" d="M227.435,228.443c10.454,2.557,20.628,6.008,28.817,11.607c0.624-9.257,1.27-16.48,1.619-20.116
			c-8.678-2.085-17.519-3.58-25.551-5.205C230.886,219.743,229.245,224.295,227.435,228.443z"/>
	</g>
</g>
<g>
</g>
<g>
</g>
<g>
</g>
<g>
</g>
<g>
</g>
<g>
</g>
<g>
</g>
<g>
</g>
<g>
</g>
<g>
</g>
<g>
</g>
<g>
</g>
<g>
</g>
<g>
</g>
<g>
</g>
</svg>
